PathFileType	4	(X/Y/Z)	C:\Users\xlb\Desktop\20210112\20210112\bx_n_10_501.trc
DataRate	CameraRate	NumFrames	NumMarkers	Units	OrigDataRate	OrigDataStartFrame	OrigNumFrames
50.00	50.00	       4	43	mm	50.00	382	       436
Frame#	Time	Top.Head			R.Acromium			L.Acromium			Sternum			R.ASIS			L.ASIS			V.Sacral			R.Thigh.Upper			R.Thigh.Front			R.Thigh.Rear			R.Knee.Lat			R.Knee.Med			R.Shank.Upper			R.Shank.Front			R.Shank.Rear			R.Ankle.Lat			R.Midfoot.Lat			R.Toe.Lat			R.Toe.Tip			R.Toe.Med			R.Ankle.Med			R.Midfoot.Sup			R.Heel			L.Thigh.Upper			L.Thigh.Front			L.Thigh.Rear			L.Knee.Lat			L.Knee.Med			L.Shank.Upper			L.Shank.Front			L.Shank.Rear			L.Ankle.Lat			L.Midfoot.Lat			L.Toe.Lat			L.Toe.Tip			L.Toe.Med			L.Ankle.Med			L.Midfoot.Sup			L.Heel			origin1 front left			origin2 front right			origin 3 back right			origin 4 back leftt			
		X1	Y1	Z1	X2	Y2	Z2	X3	Y3	Z3	X4	Y4	Z4	X5	Y5	Z5	X6	Y6	Z6	X7	Y7	Z7	X8	Y8	Z8	X9	Y9	Z9	X10	Y10	Z10	X11	Y11	Z11	X12	Y12	Z12	X13	Y13	Z13	X14	Y14	Z14	X15	Y15	Z15	X16	Y16	Z16	X17	Y17	Z17	X18	Y18	Z18	X19	Y19	Z19	X20	Y20	Z20	X21	Y21	Z21	X22	Y22	Z22	X23	Y23	Z23	X24	Y24	Z24	X25	Y25	Z25	X26	Y26	Z26	X27	Y27	Z27	X28	Y28	Z28	X29	Y29	Z29	X30	Y30	Z30	X31	Y31	Z31	X32	Y32	Z32	X33	Y33	Z33	X34	Y34	Z34	X35	Y35	Z35	X36	Y36	Z36	X37	Y37	Z37	X38	Y38	Z38	X39	Y39	Z39	X40	Y40	Z40	X41	Y41	Z41	X42	Y42	Z42	X43	Y43	Z43	

382	7.620	-720.82910	121.34271	1845.23987	-699.81696	-70.50633	1537.58337	-728.58112	287.71893	1527.38770	-600.45929	108.66127	1361.97595	-567.63611	-2.41097	1056.73230	-593.97382	246.16722	1069.58704	-776.82623	85.93954	1044.57495	-625.59619	-72.16413	871.69208	-557.96045	1.71400	804.53333	-651.30591	-60.06966	757.75195	-680.14294	-35.16940	615.68475	-670.16302	73.97842	574.12183	-689.61615	-32.46182	568.07629	-644.30603	17.24587	516.33875	-738.51843	-45.45069	490.50351	-756.43597	-20.18863	208.05209	-648.69006	-68.95068	161.16852	-607.12085	-76.22367	156.77229	-549.17950	-31.00146	163.83495	-596.72540	25.01865	167.67093	-714.70496	69.51823	215.95273	-672.03918	52.57109	159.43997	-790.83527	38.33961	174.13751	-673.13818	285.71265	874.82922	-568.91998	216.94017	816.23792	-682.24249	269.38080	745.00690	-713.23743	250.99059	643.80859	-677.21082	145.14426	578.60754	-716.66510	248.01233	577.79852	-664.36475	206.58067	534.68005	-759.05615	257.59808	504.24484	-767.12170	227.19618	205.69868	-660.32013	297.79465	157.88719	-624.05054	306.84995	158.46059	-556.01166	257.11816	164.16486	-591.18506	219.83522	173.55724	-711.12628	153.80904	216.47914	-674.75494	172.98474	158.06421	-794.95801	178.10518	184.11377	-528.08093	304.33063	146.46686	-517.51862	-72.93498	143.10637	-875.88623	-78.76196	141.24269	-882.62512	296.11191	144.58762	
383	7.640	-722.83246	121.17200	1845.01135	-701.21558	-70.78653	1537.46912	-729.69635	287.47604	1526.93567	-600.77094	108.21734	1361.97815	-567.06860	-2.71111	1056.71021	-593.26080	246.01735	1069.71350	-776.13837	85.78544	1044.21667	-624.96741	-72.41089	871.60986	-557.30981	1.46485	804.45367	-650.62231	-60.30500	757.70148	-679.77380	-35.28182	615.49420	-669.62628	73.82842	574.08606	-689.10895	-32.68203	567.98431	-643.73688	17.09379	516.24200	-738.13031	-45.52277	490.53110	-756.50031	-20.20927	208.05069	-648.65729	-68.97795	161.14420	-607.11707	-76.22234	156.75858	-549.17517	-30.98262	163.84602	-596.72919	24.99481	167.72003	-714.80817	69.42555	215.91963	-672.05670	52.51710	159.39110	-791.05682	38.37110	174.20276	-672.24115	285.53656	874.98334	-568.03040	216.81853	816.20044	-681.39520	269.06982	744.92004	-712.30750	250.69298	643.71930	-676.25104	144.95830	578.46057	-715.75214	247.73726	577.71136	-663.56445	206.30606	534.47620	-758.23401	257.40732	504.24420	-767.06592	227.10258	205.77354	-660.31250	297.72775	157.88286	-624.04846	306.78442	158.49600	-555.97717	257.23059	164.22682	-591.07434	219.74428	173.43967	-711.05908	153.60762	216.40663	-674.66333	172.91762	157.98567	-794.90741	178.00595	184.13190	-528.05621	304.35971	146.50337	-517.52167	-72.93410	143.09438	-875.89850	-78.75941	141.30684	-882.59137	296.11194	144.57753	
384	7.660	-724.55524	120.96196	1844.82031	-702.49750	-71.08910	1537.33752	-730.69513	287.18732	1526.55200	-601.23724	107.70116	1361.92188	-566.57996	-2.93137	1056.73901	-592.68854	245.80833	1069.75854	-775.55505	85.61497	1043.96631	-624.45728	-72.63713	871.53741	-556.81921	1.23383	804.42639	-650.01331	-60.54411	757.59802	-679.32373	-35.44844	615.28351	-669.24091	73.66277	574.05182	-688.53680	-33.02833	567.98358	-643.35052	16.90767	516.01813	-737.72876	-45.71277	490.61197	-756.56873	-20.25423	208.01985	-648.61890	-69.02818	161.13158	-607.12195	-76.23904	156.72668	-549.17584	-30.96460	163.87079	-596.74432	24.94388	167.74794	-714.92780	69.31790	215.87444	-672.05414	52.47468	159.37175	-791.26416	38.37465	174.23305	-671.54871	285.28302	875.10809	-567.31323	216.75217	816.20306	-680.70905	268.73407	744.87903	-711.55658	250.49538	643.70782	-675.49506	144.78670	578.28510	-715.01245	247.53671	577.68207	-662.91565	206.06622	534.28046	-757.53357	257.21143	504.24969	-767.03125	227.02483	205.82051	-660.30835	297.65244	157.88417	-624.05585	306.76938	158.52066	-555.96600	257.39676	164.32959	-590.99603	219.64156	173.33458	-711.01050	153.40448	216.38045	-674.57452	172.87735	157.93918	-794.85840	177.92838	184.13928	-528.03772	304.37732	146.52014	-517.52869	-72.94180	143.06972	-875.92761	-78.77702	141.37111	-882.56012	296.10254	144.57436	
385	7.680	-726.06329	120.68961	1844.63586	-703.66986	-71.42037	1537.14197	-731.55634	286.86902	1526.25549	-601.88019	107.16643	1361.82227	-566.17255	-3.12124	1056.78955	-592.23737	245.53729	1069.70959	-775.06873	85.45567	1043.80542	-624.06189	-72.85080	871.47296	-556.48114	1.03529	804.42084	-649.53125	-60.80476	757.51892	-678.88232	-35.63830	615.05743	-668.98071	73.49351	574.02435	-688.04938	-33.35610	568.02753	-643.15442	16.68179	515.75830	-737.35870	-45.99734	490.69965	-756.62909	-20.33108	207.95258	-648.61414	-69.08697	161.10864	-607.14130	-76.26998	156.67917	-549.19513	-30.93689	163.91176	-596.76556	24.89392	167.75580	-715.00964	69.23108	215.84772	-672.02319	52.43592	159.38393	-791.38501	38.32977	174.21594	-671.08826	284.92117	875.10535	-566.75104	216.67462	816.25659	-680.19305	268.38156	744.88385	-711.00879	250.39236	643.79504	-674.97510	144.64703	578.11560	-714.51416	247.37617	577.71033	-662.41339	205.84483	534.18127	-757.02380	256.93884	504.21521	-767.01794	226.95880	205.84946	-660.32385	297.56812	157.92357	-624.05591	306.79828	158.54742	-555.98462	257.56384	164.44472	-590.93872	219.57471	173.25529	-710.99048	153.25426	216.36882	-674.49353	172.85393	157.90181	-794.83270	177.88487	184.13110	-528.03833	304.37146	146.50015	-517.53394	-72.96178	143.04413	-875.95789	-78.80729	141.39975	-882.54327	296.11267	144.59010	
